<svg width="174" height="39" viewBox="0 0 174 39" fill="none" xmlns="http://www.w3.org/2000/svg">
<path d="M16.043 26.8064C13.8667 25.998 11.6281 25.8737 9.57614 26.4333C8.14596 26.8064 6.77796 27.5526 5.53432 28.4853L4.66376 29.2315L4.41504 29.4802L4.97467 29.9777C5.03685 29.9777 5.03686 30.0399 5.09904 30.102C5.22341 30.2264 5.34778 30.2886 5.53432 30.4129L5.9074 30.6617L6.28049 30.3508C6.34268 30.2886 6.46704 30.1642 6.5914 30.102C7.71068 29.1693 8.95431 28.5475 10.2601 28.2366C11.939 27.8013 13.7423 27.8635 15.5456 28.5475C17.0379 29.1071 20.0849 29.7911 23.7536 28.2366L23.878 28.1744L24.0645 27.9879C24.0645 27.9257 24.1267 27.9257 24.1889 27.8635C24.4998 27.4904 24.8107 27.1173 25.0594 26.682L26.303 24.7544L24.3132 25.8737C21.3907 27.4904 18.7169 27.8013 16.043 26.8064Z" fill="#FF2D55"/>
<path d="M7.52364 20.0906C9.20255 19.6553 11.0058 19.7175 12.8091 20.4015C14.7989 21.1477 19.8978 22.2048 25.6186 17.0437L26.5513 16.111L26.6135 16.0488L26.8622 15.8001L26.7378 15.4891C26.6756 15.2404 26.5513 14.9295 26.4269 14.6186L26.116 13.748L25.4942 14.3699C25.432 14.4942 25.3076 14.5564 25.1833 14.6808C22.4473 17.479 18.2189 20.3393 13.3687 18.5982C11.1924 17.7899 8.95382 17.6655 6.90182 18.2251C4.91201 18.7848 3.17091 19.8419 1.55418 21.3342V21.2721L0.621456 22.267C0.621456 22.3291 0.559286 22.3292 0.497104 22.3913L0.310547 22.5779L0.372732 22.8266C0.434914 23.1375 0.559274 23.4484 0.621456 23.7593L0.994551 24.7542L1.61637 23.9459C1.67855 23.8215 1.80291 23.7593 1.86509 23.635C3.17091 22.4535 4.97419 20.7746 7.52364 20.0906Z" fill="#FF2D55"/>
<path d="M1.49238 18.9715C2.92256 17.4792 4.53928 16.5464 6.28037 16.049C7.95928 15.6137 9.76255 15.6759 11.5658 16.3599C17.1622 18.4119 22.0124 15.0541 24.1266 13.2508L24.9349 12.4424L25.2458 12.1937L24.9971 11.8206C24.8106 11.6341 24.6862 11.3854 24.4997 11.1366L24.1266 10.6392L23.6913 11.0744C23.6291 11.1366 23.5047 11.261 23.4426 11.3232C20.8309 13.8104 16.7891 16.3599 12.1876 14.6188C10.0113 13.8104 7.77273 13.6861 5.72074 14.2457C4.41492 14.6188 3.17128 15.2406 1.92764 16.049L0.621818 17.1061C0.497455 17.2304 0.435273 17.2926 0.310909 17.417L0.186557 17.5413V17.7279C0.124375 18.1632 0.124367 18.5984 0.0621856 18.9715L0 20.5261L1.0571 19.4068C1.18146 19.2824 1.30583 19.0959 1.49238 18.9715Z" fill="#FF2D55"/>
<path d="M17.8466 31.0349L17.7222 31.408L17.8466 31.0349C17.66 30.9727 17.5357 30.9105 17.3491 30.8483C15.1728 30.04 12.9342 29.9156 10.8822 30.4753C10.4469 30.5996 10.0117 30.724 9.57639 30.9105L8.08401 31.5945L7.71094 31.7811L8.95457 32.2163C9.32766 32.3407 9.70075 32.4651 10.0738 32.5894L10.2604 32.6516L10.4469 32.5894C10.6335 32.5273 10.82 32.4029 11.0066 32.4029C11.1309 32.4029 11.2553 32.3407 11.3797 32.2785C12.872 31.9054 14.4887 31.9054 16.2298 32.4651C16.4164 32.5272 16.5408 32.5894 16.7273 32.6516L17.0382 32.776L17.2247 32.7138C17.66 32.5894 18.1575 32.4651 18.5306 32.2785L20.2717 31.6567L18.4684 31.2214C18.2818 31.1592 18.0331 31.0971 17.8466 31.0349Z" fill="#FF2D55"/>
<path d="M27.3597 18.1631L26.427 19.0958C26.3027 19.2202 26.1783 19.3445 26.0539 19.4689C23.5045 21.894 19.4005 24.5056 14.799 22.7645C12.6227 21.9562 10.3841 21.8318 8.33213 22.3915C6.40449 22.9511 4.66338 23.946 3.10884 25.4384L2.30048 26.3089L2.05176 26.6198L2.30048 26.9929C2.48703 27.2416 2.6114 27.4282 2.73576 27.6769L3.10884 28.2365L3.54412 27.6769C3.6063 27.6147 3.73066 27.4904 3.79284 27.4282C5.2852 25.8114 6.90193 24.8165 8.76739 24.3191C10.4463 23.8838 12.2496 23.946 14.0528 24.63C15.6074 25.1896 17.2241 25.3762 18.8408 25.1896C21.7012 24.8787 24.5616 23.262 26.6758 21.4587C26.8001 21.3344 26.9245 21.2722 27.0488 21.1478L27.2354 20.9613V20.7747C27.2354 20.4016 27.2976 19.9664 27.2976 19.5933L27.3597 18.1631Z" fill="#FF2D55"/>
<path d="M3.73045 12.4423L3.54391 12.0692L3.73045 12.4423C4.10354 12.2557 4.53883 12.1313 4.91192 12.007C6.59083 11.5717 8.3941 11.6339 10.1974 12.3179C11.3788 12.7532 12.5603 12.9397 13.8661 12.9397C16.4777 12.9397 19.0894 12.007 21.5145 10.2037L22.4472 9.45752L22.7581 9.20879L22.1985 8.77351C22.0119 8.58697 21.7632 8.40043 21.5145 8.27607L21.1414 8.02734L20.8305 8.27607C20.7061 8.33825 20.6439 8.46261 20.5195 8.52479C17.2239 11.0121 13.9283 11.6961 10.8192 10.5146C8.58065 9.70625 6.34209 9.51971 4.10355 10.2037C3.917 10.2659 3.73045 10.3281 3.48173 10.3902L3.35738 10.4524L3.17082 10.639C3.17082 10.7012 3.10865 10.7012 3.04647 10.7633C2.79774 11.1364 2.48682 11.4473 2.23809 11.8204L1.05664 13.6237L2.98428 12.6288C3.29519 12.6288 3.54391 12.5044 3.73045 12.4423Z" fill="#FF2D55"/>
<path d="M8.82967 8.21393L9.01621 8.27611C9.82457 8.58702 11.0682 8.89793 12.6228 8.89793C14.2395 8.89793 15.794 8.52484 17.3486 7.90302L19.2762 6.97029L17.9704 6.53503C17.5973 6.41067 17.2242 6.2863 16.7889 6.22412H16.6024L16.4159 6.28629C16.2293 6.34847 16.0428 6.47285 15.8562 6.53503C13.9908 7.21903 12.1253 7.34339 10.322 6.84594C10.1355 6.78376 9.94894 6.72156 9.7624 6.65938L9.57586 6.5972L9.3893 6.65938C9.01621 6.78375 8.64313 6.90812 8.27004 7.09466L6.83984 7.71648L8.33222 8.15174C8.45659 8.08956 8.64312 8.15175 8.82967 8.21393Z" fill="#FF2D55"/>
<path d="M46.6921 30.28C45.1055 30.28 43.6401 30.084 42.2961 29.692C40.9708 29.2813 39.8321 28.7213 38.8801 28.012L40.0001 25.184C40.6348 25.632 41.2975 26.0147 41.9881 26.332C42.6788 26.6307 43.4161 26.864 44.2001 27.032C44.9841 27.1813 45.8148 27.256 46.6921 27.256C48.1668 27.256 49.2308 27.0133 49.8841 26.528C50.5375 26.0427 50.8641 25.408 50.8641 24.624C50.8641 23.9333 50.6401 23.4107 50.1921 23.056C49.7441 22.6827 48.9415 22.3747 47.7841 22.132L44.6201 21.488C42.8095 21.1147 41.4561 20.4893 40.5601 19.612C39.6641 18.7347 39.2161 17.5587 39.2161 16.084C39.2161 14.852 39.5428 13.7787 40.1961 12.864C40.8495 11.9493 41.7641 11.24 42.9401 10.736C44.1161 10.232 45.4881 9.98 47.0561 9.98C48.4561 9.98 49.7535 10.1853 50.9481 10.596C52.1428 10.988 53.1415 11.5573 53.9441 12.304L52.8241 14.992C52.0215 14.32 51.1441 13.8253 50.1921 13.508C49.2401 13.172 48.1761 13.004 47.0001 13.004C45.6748 13.004 44.6388 13.2653 43.8921 13.788C43.1641 14.292 42.8001 14.992 42.8001 15.888C42.8001 16.5787 43.0241 17.1293 43.4721 17.54C43.9388 17.9507 44.7228 18.268 45.8241 18.492L48.9601 19.108C50.8268 19.4813 52.2081 20.0973 53.1041 20.956C54.0001 21.796 54.4481 22.9347 54.4481 24.372C54.4481 25.548 54.1308 26.584 53.4961 27.48C52.8615 28.3573 51.9655 29.048 50.8081 29.552C49.6508 30.0373 48.2788 30.28 46.6921 30.28ZM57.571 30V19.388C57.571 18.8093 57.5523 18.2213 57.515 17.624C57.4777 17.0267 57.4217 16.4387 57.347 15.86H60.735L61.015 18.66H60.679C61.071 17.6893 61.6683 16.9333 62.471 16.392C63.2923 15.8507 64.263 15.58 65.383 15.58C66.503 15.58 67.427 15.8507 68.155 16.392C68.9017 16.9147 69.4243 17.736 69.723 18.856H69.275C69.667 17.848 70.311 17.0547 71.207 16.476C72.103 15.8787 73.1297 15.58 74.287 15.58C75.8737 15.58 77.059 16.0467 77.843 16.98C78.627 17.9133 79.019 19.3693 79.019 21.348V30H75.519V21.488C75.519 20.368 75.3323 19.5653 74.959 19.08C74.5857 18.576 73.9883 18.324 73.167 18.324C72.1963 18.324 71.431 18.6693 70.871 19.36C70.311 20.032 70.031 20.9467 70.031 22.104V30H66.531V21.488C66.531 20.368 66.3443 19.5653 65.971 19.08C65.5977 18.576 65.0003 18.324 64.179 18.324C63.2083 18.324 62.443 18.6693 61.883 19.36C61.3417 20.032 61.071 20.9467 61.071 22.104V30H57.571ZM88.2146 30.28C86.9826 30.28 85.8999 29.9907 84.9666 29.412C84.0333 28.8147 83.3053 27.9653 82.7826 26.864C82.2599 25.7627 81.9986 24.4467 81.9986 22.916C81.9986 21.3853 82.2599 20.0787 82.7826 18.996C83.3053 17.8947 84.0333 17.0547 84.9666 16.476C85.8999 15.8787 86.9826 15.58 88.2146 15.58C89.4093 15.58 90.4546 15.8787 91.3506 16.476C92.2653 17.0547 92.8719 17.8387 93.1706 18.828H92.8626L93.1706 15.86H96.5306C96.4746 16.4387 96.4186 17.0267 96.3626 17.624C96.3253 18.2213 96.3066 18.8093 96.3066 19.388V30H92.8346L92.8066 27.088H93.1426C92.8439 28.0587 92.2373 28.8333 91.3226 29.412C90.4079 29.9907 89.3719 30.28 88.2146 30.28ZM89.1946 27.592C90.2959 27.592 91.1826 27.2093 91.8546 26.444C92.5266 25.66 92.8626 24.484 92.8626 22.916C92.8626 21.348 92.5266 20.1813 91.8546 19.416C91.1826 18.6507 90.2959 18.268 89.1946 18.268C88.0933 18.268 87.2066 18.6507 86.5346 19.416C85.8626 20.1813 85.5266 21.348 85.5266 22.916C85.5266 24.484 85.8533 25.66 86.5066 26.444C87.1786 27.2093 88.0746 27.592 89.1946 27.592ZM100.09 30V19.472C100.09 18.8747 100.071 18.268 100.034 17.652C100.015 17.036 99.9685 16.4387 99.8939 15.86H103.282L103.674 19.724H103.114C103.301 18.7907 103.609 18.016 104.038 17.4C104.486 16.784 105.027 16.3267 105.662 16.028C106.297 15.7293 106.987 15.58 107.734 15.58C108.07 15.58 108.341 15.5987 108.546 15.636C108.751 15.6547 108.957 15.7013 109.162 15.776L109.134 18.856C108.779 18.7067 108.471 18.6133 108.21 18.576C107.967 18.5387 107.659 18.52 107.286 18.52C106.483 18.52 105.802 18.688 105.242 19.024C104.701 19.36 104.29 19.8267 104.01 20.424C103.749 21.0213 103.618 21.7027 103.618 22.468V30H100.09ZM117.951 30.28C116.271 30.28 115.002 29.8413 114.143 28.964C113.284 28.0867 112.855 26.7707 112.855 25.016V18.492H110.139V15.86H112.855V12.248L116.355 11.352V15.86H120.135V18.492H116.355V24.792C116.355 25.7627 116.542 26.444 116.915 26.836C117.288 27.228 117.802 27.424 118.455 27.424C118.81 27.424 119.108 27.396 119.351 27.34C119.612 27.284 119.864 27.2093 120.107 27.116V29.888C119.79 30.0187 119.435 30.112 119.043 30.168C118.67 30.2427 118.306 30.28 117.951 30.28ZM122.792 30V10.26H131.444C133.591 10.26 135.243 10.7173 136.4 11.632C137.558 12.528 138.136 13.7787 138.136 15.384C138.136 16.5787 137.782 17.5867 137.072 18.408C136.363 19.2293 135.383 19.78 134.132 20.06V19.64C135.57 19.8453 136.68 20.368 137.464 21.208C138.267 22.0293 138.668 23.1213 138.668 24.484C138.668 26.2387 138.062 27.6013 136.848 28.572C135.635 29.524 133.946 30 131.78 30H122.792ZM126.264 27.256H131.36C132.574 27.256 133.516 27.032 134.188 26.584C134.86 26.1173 135.196 25.3613 135.196 24.316C135.196 23.252 134.86 22.496 134.188 22.048C133.516 21.5813 132.574 21.348 131.36 21.348H126.264V27.256ZM126.264 18.632H130.828C132.116 18.632 133.068 18.3987 133.684 17.932C134.319 17.4467 134.636 16.7373 134.636 15.804C134.636 14.8707 134.319 14.1707 133.684 13.704C133.068 13.2187 132.116 12.976 130.828 12.976H126.264V18.632ZM148.032 30.28C146.67 30.28 145.363 30.084 144.112 29.692C142.862 29.2813 141.835 28.7213 141.032 28.012L142.208 25.296C143.086 25.968 143.991 26.4627 144.924 26.78C145.876 27.0973 146.875 27.256 147.92 27.256C149.19 27.256 150.151 27.004 150.804 26.5C151.458 25.996 151.784 25.2587 151.784 24.288C151.784 23.3547 151.458 22.6547 150.804 22.188C150.17 21.7027 149.236 21.46 148.004 21.46H144.812V18.576H147.696C148.76 18.576 149.61 18.3147 150.244 17.792C150.879 17.2693 151.196 16.5507 151.196 15.636C151.196 14.7773 150.898 14.124 150.3 13.676C149.722 13.228 148.882 13.004 147.78 13.004C145.802 13.004 144.056 13.676 142.544 15.02L141.368 12.332C142.171 11.5853 143.16 11.0067 144.336 10.596C145.531 10.1853 146.782 9.98 148.088 9.98C150.142 9.98 151.747 10.4467 152.904 11.38C154.08 12.2947 154.668 13.5733 154.668 15.216C154.668 16.392 154.332 17.4093 153.66 18.268C153.007 19.108 152.102 19.668 150.944 19.948V19.612C152.307 19.836 153.362 20.396 154.108 21.292C154.874 22.1693 155.256 23.2707 155.256 24.596C155.256 26.3507 154.612 27.7413 153.324 28.768C152.036 29.776 150.272 30.28 148.032 30.28Z" fill="#0F0E11"/>
</svg>
